G04 #@! TF.FileFunction,Legend,Top*
%FSLAX46Y46*%
G04 Gerber Fmt 4.6, Leading zero omitted, Abs format (unit mm)*
G04 Created by KiCad (PCBNEW 4.0.6) date 08/24/17 20:09:39*
%MOMM*%
%LPD*%
G01*
G04 APERTURE LIST*
%ADD10C,0.100000*%
%ADD11C,0.300000*%
%ADD12C,0.120000*%
%ADD13C,0.150000*%
G04 APERTURE END LIST*
D10*
D11*
X86967143Y-92502142D02*
X87038571Y-92287856D01*
X87038571Y-91930713D01*
X86967143Y-91787856D01*
X86895714Y-91716427D01*
X86752857Y-91644999D01*
X86610000Y-91644999D01*
X86467143Y-91716427D01*
X86395714Y-91787856D01*
X86324286Y-91930713D01*
X86252857Y-92216427D01*
X86181429Y-92359285D01*
X86110000Y-92430713D01*
X85967143Y-92502142D01*
X85824286Y-92502142D01*
X85681429Y-92430713D01*
X85610000Y-92359285D01*
X85538571Y-92216427D01*
X85538571Y-91859285D01*
X85610000Y-91644999D01*
X87038571Y-91002142D02*
X86038571Y-91002142D01*
X86181429Y-91002142D02*
X86110000Y-90930714D01*
X86038571Y-90787856D01*
X86038571Y-90573571D01*
X86110000Y-90430714D01*
X86252857Y-90359285D01*
X87038571Y-90359285D01*
X86252857Y-90359285D02*
X86110000Y-90287856D01*
X86038571Y-90144999D01*
X86038571Y-89930714D01*
X86110000Y-89787856D01*
X86252857Y-89716428D01*
X87038571Y-89716428D01*
X87038571Y-88359285D02*
X86252857Y-88359285D01*
X86110000Y-88430714D01*
X86038571Y-88573571D01*
X86038571Y-88859285D01*
X86110000Y-89002142D01*
X86967143Y-88359285D02*
X87038571Y-88502142D01*
X87038571Y-88859285D01*
X86967143Y-89002142D01*
X86824286Y-89073571D01*
X86681429Y-89073571D01*
X86538571Y-89002142D01*
X86467143Y-88859285D01*
X86467143Y-88502142D01*
X86395714Y-88359285D01*
X87038571Y-87644999D02*
X86038571Y-87644999D01*
X86324286Y-87644999D02*
X86181429Y-87573571D01*
X86110000Y-87502142D01*
X86038571Y-87359285D01*
X86038571Y-87216428D01*
X86038571Y-86930714D02*
X86038571Y-86359285D01*
X85538571Y-86716428D02*
X86824286Y-86716428D01*
X86967143Y-86645000D01*
X87038571Y-86502142D01*
X87038571Y-86359285D01*
X86252857Y-84216428D02*
X86324286Y-84002142D01*
X86395714Y-83930714D01*
X86538571Y-83859285D01*
X86752857Y-83859285D01*
X86895714Y-83930714D01*
X86967143Y-84002142D01*
X87038571Y-84145000D01*
X87038571Y-84716428D01*
X85538571Y-84716428D01*
X85538571Y-84216428D01*
X85610000Y-84073571D01*
X85681429Y-84002142D01*
X85824286Y-83930714D01*
X85967143Y-83930714D01*
X86110000Y-84002142D01*
X86181429Y-84073571D01*
X86252857Y-84216428D01*
X86252857Y-84716428D01*
X86038571Y-82573571D02*
X87038571Y-82573571D01*
X86038571Y-83216428D02*
X86824286Y-83216428D01*
X86967143Y-83145000D01*
X87038571Y-83002142D01*
X87038571Y-82787857D01*
X86967143Y-82645000D01*
X86895714Y-82573571D01*
X87038571Y-81216428D02*
X85538571Y-81216428D01*
X86967143Y-81216428D02*
X87038571Y-81359285D01*
X87038571Y-81644999D01*
X86967143Y-81787857D01*
X86895714Y-81859285D01*
X86752857Y-81930714D01*
X86324286Y-81930714D01*
X86181429Y-81859285D01*
X86110000Y-81787857D01*
X86038571Y-81644999D01*
X86038571Y-81359285D01*
X86110000Y-81216428D01*
X86252857Y-78859285D02*
X86324286Y-78644999D01*
X86395714Y-78573571D01*
X86538571Y-78502142D01*
X86752857Y-78502142D01*
X86895714Y-78573571D01*
X86967143Y-78644999D01*
X87038571Y-78787857D01*
X87038571Y-79359285D01*
X85538571Y-79359285D01*
X85538571Y-78859285D01*
X85610000Y-78716428D01*
X85681429Y-78644999D01*
X85824286Y-78573571D01*
X85967143Y-78573571D01*
X86110000Y-78644999D01*
X86181429Y-78716428D01*
X86252857Y-78859285D01*
X86252857Y-79359285D01*
X87038571Y-77644999D02*
X86967143Y-77787857D01*
X86895714Y-77859285D01*
X86752857Y-77930714D01*
X86324286Y-77930714D01*
X86181429Y-77859285D01*
X86110000Y-77787857D01*
X86038571Y-77644999D01*
X86038571Y-77430714D01*
X86110000Y-77287857D01*
X86181429Y-77216428D01*
X86324286Y-77144999D01*
X86752857Y-77144999D01*
X86895714Y-77216428D01*
X86967143Y-77287857D01*
X87038571Y-77430714D01*
X87038571Y-77644999D01*
X87038571Y-76644999D02*
X86038571Y-75859285D01*
X86038571Y-76644999D02*
X87038571Y-75859285D01*
X85538571Y-74359285D02*
X87038571Y-73859285D01*
X85538571Y-73359285D01*
X87038571Y-70930714D02*
X87038571Y-71787857D01*
X87038571Y-71359285D02*
X85538571Y-71359285D01*
X85752857Y-71502142D01*
X85895714Y-71645000D01*
X85967143Y-71787857D01*
X86895714Y-70287857D02*
X86967143Y-70216429D01*
X87038571Y-70287857D01*
X86967143Y-70359286D01*
X86895714Y-70287857D01*
X87038571Y-70287857D01*
X85538571Y-69287857D02*
X85538571Y-69145000D01*
X85610000Y-69002143D01*
X85681429Y-68930714D01*
X85824286Y-68859285D01*
X86110000Y-68787857D01*
X86467143Y-68787857D01*
X86752857Y-68859285D01*
X86895714Y-68930714D01*
X86967143Y-69002143D01*
X87038571Y-69145000D01*
X87038571Y-69287857D01*
X86967143Y-69430714D01*
X86895714Y-69502143D01*
X86752857Y-69573571D01*
X86467143Y-69645000D01*
X86110000Y-69645000D01*
X85824286Y-69573571D01*
X85681429Y-69502143D01*
X85610000Y-69430714D01*
X85538571Y-69287857D01*
X162603571Y-112322857D02*
X161103571Y-112322857D01*
X161103571Y-111751429D01*
X161175000Y-111608571D01*
X161246429Y-111537143D01*
X161389286Y-111465714D01*
X161603571Y-111465714D01*
X161746429Y-111537143D01*
X161817857Y-111608571D01*
X161889286Y-111751429D01*
X161889286Y-112322857D01*
X161103571Y-110822857D02*
X162317857Y-110822857D01*
X162460714Y-110751429D01*
X162532143Y-110680000D01*
X162603571Y-110537143D01*
X162603571Y-110251429D01*
X162532143Y-110108571D01*
X162460714Y-110037143D01*
X162317857Y-109965714D01*
X161103571Y-109965714D01*
X162603571Y-109251428D02*
X161103571Y-109251428D01*
X162175000Y-108751428D01*
X161103571Y-108251428D01*
X162603571Y-108251428D01*
X162603571Y-107537142D02*
X161103571Y-107537142D01*
X161103571Y-106965714D01*
X161175000Y-106822856D01*
X161246429Y-106751428D01*
X161389286Y-106679999D01*
X161603571Y-106679999D01*
X161746429Y-106751428D01*
X161817857Y-106822856D01*
X161889286Y-106965714D01*
X161889286Y-107537142D01*
X161175000Y-104108571D02*
X161103571Y-104251428D01*
X161103571Y-104465714D01*
X161175000Y-104679999D01*
X161317857Y-104822857D01*
X161460714Y-104894285D01*
X161746429Y-104965714D01*
X161960714Y-104965714D01*
X162246429Y-104894285D01*
X162389286Y-104822857D01*
X162532143Y-104679999D01*
X162603571Y-104465714D01*
X162603571Y-104322857D01*
X162532143Y-104108571D01*
X162460714Y-104037142D01*
X161960714Y-104037142D01*
X161960714Y-104322857D01*
X162603571Y-103394285D02*
X161103571Y-103394285D01*
X162603571Y-102537142D01*
X161103571Y-102537142D01*
X162603571Y-101822856D02*
X161103571Y-101822856D01*
X161103571Y-101465713D01*
X161175000Y-101251428D01*
X161317857Y-101108570D01*
X161460714Y-101037142D01*
X161746429Y-100965713D01*
X161960714Y-100965713D01*
X162246429Y-101037142D01*
X162389286Y-101108570D01*
X162532143Y-101251428D01*
X162603571Y-101465713D01*
X162603571Y-101822856D01*
X157523571Y-111537143D02*
X157523571Y-112251429D01*
X156023571Y-112251429D01*
X157523571Y-111037143D02*
X156023571Y-111037143D01*
X156095000Y-109537143D02*
X156023571Y-109680000D01*
X156023571Y-109894286D01*
X156095000Y-110108571D01*
X156237857Y-110251429D01*
X156380714Y-110322857D01*
X156666429Y-110394286D01*
X156880714Y-110394286D01*
X157166429Y-110322857D01*
X157309286Y-110251429D01*
X157452143Y-110108571D01*
X157523571Y-109894286D01*
X157523571Y-109751429D01*
X157452143Y-109537143D01*
X157380714Y-109465714D01*
X156880714Y-109465714D01*
X156880714Y-109751429D01*
X157523571Y-108822857D02*
X156023571Y-108822857D01*
X156737857Y-108822857D02*
X156737857Y-107965714D01*
X157523571Y-107965714D02*
X156023571Y-107965714D01*
X156023571Y-107465714D02*
X156023571Y-106608571D01*
X157523571Y-107037142D02*
X156023571Y-107037142D01*
X156095000Y-104180000D02*
X156023571Y-104322857D01*
X156023571Y-104537143D01*
X156095000Y-104751428D01*
X156237857Y-104894286D01*
X156380714Y-104965714D01*
X156666429Y-105037143D01*
X156880714Y-105037143D01*
X157166429Y-104965714D01*
X157309286Y-104894286D01*
X157452143Y-104751428D01*
X157523571Y-104537143D01*
X157523571Y-104394286D01*
X157452143Y-104180000D01*
X157380714Y-104108571D01*
X156880714Y-104108571D01*
X156880714Y-104394286D01*
X157523571Y-103465714D02*
X156023571Y-103465714D01*
X157523571Y-102608571D01*
X156023571Y-102608571D01*
X157523571Y-101894285D02*
X156023571Y-101894285D01*
X156023571Y-101537142D01*
X156095000Y-101322857D01*
X156237857Y-101179999D01*
X156380714Y-101108571D01*
X156666429Y-101037142D01*
X156880714Y-101037142D01*
X157166429Y-101108571D01*
X157309286Y-101179999D01*
X157452143Y-101322857D01*
X157523571Y-101537142D01*
X157523571Y-101894285D01*
X146792143Y-115799285D02*
X146792143Y-114656428D01*
X147363571Y-115227857D02*
X146220714Y-115227857D01*
X147363571Y-113156428D02*
X147363571Y-114013571D01*
X147363571Y-113584999D02*
X145863571Y-113584999D01*
X146077857Y-113727856D01*
X146220714Y-113870714D01*
X146292143Y-114013571D01*
X146006429Y-112585000D02*
X145935000Y-112513571D01*
X145863571Y-112370714D01*
X145863571Y-112013571D01*
X145935000Y-111870714D01*
X146006429Y-111799285D01*
X146149286Y-111727857D01*
X146292143Y-111727857D01*
X146506429Y-111799285D01*
X147363571Y-112656428D01*
X147363571Y-111727857D01*
X145863571Y-111299286D02*
X147363571Y-110799286D01*
X145863571Y-110299286D01*
X145935000Y-107870715D02*
X145863571Y-108013572D01*
X145863571Y-108227858D01*
X145935000Y-108442143D01*
X146077857Y-108585001D01*
X146220714Y-108656429D01*
X146506429Y-108727858D01*
X146720714Y-108727858D01*
X147006429Y-108656429D01*
X147149286Y-108585001D01*
X147292143Y-108442143D01*
X147363571Y-108227858D01*
X147363571Y-108085001D01*
X147292143Y-107870715D01*
X147220714Y-107799286D01*
X146720714Y-107799286D01*
X146720714Y-108085001D01*
X147363571Y-107156429D02*
X145863571Y-107156429D01*
X147363571Y-106299286D01*
X145863571Y-106299286D01*
X147363571Y-105585000D02*
X145863571Y-105585000D01*
X145863571Y-105227857D01*
X145935000Y-105013572D01*
X146077857Y-104870714D01*
X146220714Y-104799286D01*
X146506429Y-104727857D01*
X146720714Y-104727857D01*
X147006429Y-104799286D01*
X147149286Y-104870714D01*
X147292143Y-105013572D01*
X147363571Y-105227857D01*
X147363571Y-105585000D01*
X147363571Y-102942143D02*
X145863571Y-102942143D01*
X147363571Y-102227857D02*
X145863571Y-102227857D01*
X147363571Y-101370714D01*
X145863571Y-101370714D01*
X142347143Y-115482142D02*
X142347143Y-114339285D01*
X142918571Y-114910714D02*
X141775714Y-114910714D01*
X142918571Y-112839285D02*
X142918571Y-113696428D01*
X142918571Y-113267856D02*
X141418571Y-113267856D01*
X141632857Y-113410713D01*
X141775714Y-113553571D01*
X141847143Y-113696428D01*
X141561429Y-112267857D02*
X141490000Y-112196428D01*
X141418571Y-112053571D01*
X141418571Y-111696428D01*
X141490000Y-111553571D01*
X141561429Y-111482142D01*
X141704286Y-111410714D01*
X141847143Y-111410714D01*
X142061429Y-111482142D01*
X142918571Y-112339285D01*
X142918571Y-111410714D01*
X141418571Y-110982143D02*
X142918571Y-110482143D01*
X141418571Y-109982143D01*
X142918571Y-108339286D02*
X141418571Y-108339286D01*
X142918571Y-107625000D02*
X141418571Y-107625000D01*
X142918571Y-106767857D01*
X141418571Y-106767857D01*
X135362143Y-115609285D02*
X135362143Y-114466428D01*
X135933571Y-115037857D02*
X134790714Y-115037857D01*
X135933571Y-112966428D02*
X135933571Y-113823571D01*
X135933571Y-113394999D02*
X134433571Y-113394999D01*
X134647857Y-113537856D01*
X134790714Y-113680714D01*
X134862143Y-113823571D01*
X134576429Y-112395000D02*
X134505000Y-112323571D01*
X134433571Y-112180714D01*
X134433571Y-111823571D01*
X134505000Y-111680714D01*
X134576429Y-111609285D01*
X134719286Y-111537857D01*
X134862143Y-111537857D01*
X135076429Y-111609285D01*
X135933571Y-112466428D01*
X135933571Y-111537857D01*
X134433571Y-109966429D02*
X135933571Y-109466429D01*
X134433571Y-108966429D01*
X128162857Y-114879285D02*
X128162857Y-115379285D01*
X128948571Y-115379285D02*
X127448571Y-115379285D01*
X127448571Y-114664999D01*
X128520000Y-114165000D02*
X128520000Y-113450714D01*
X128948571Y-114307857D02*
X127448571Y-113807857D01*
X128948571Y-113307857D01*
X128948571Y-112807857D02*
X127448571Y-112807857D01*
X128948571Y-111950714D01*
X127448571Y-111950714D01*
X121812857Y-115660714D02*
X121812857Y-115160714D01*
X122598571Y-114946428D02*
X122598571Y-115660714D01*
X121098571Y-115660714D01*
X121098571Y-114946428D01*
X121098571Y-114446428D02*
X122598571Y-113446428D01*
X121098571Y-113446428D02*
X122598571Y-114446428D01*
X122598571Y-112875000D02*
X121098571Y-112875000D01*
X121812857Y-112875000D02*
X121812857Y-112017857D01*
X122598571Y-112017857D02*
X121098571Y-112017857D01*
X122170000Y-111375000D02*
X122170000Y-110660714D01*
X122598571Y-111517857D02*
X121098571Y-111017857D01*
X122598571Y-110517857D01*
X121098571Y-110017857D02*
X122312857Y-110017857D01*
X122455714Y-109946429D01*
X122527143Y-109875000D01*
X122598571Y-109732143D01*
X122598571Y-109446429D01*
X122527143Y-109303571D01*
X122455714Y-109232143D01*
X122312857Y-109160714D01*
X121098571Y-109160714D01*
X122527143Y-108517857D02*
X122598571Y-108303571D01*
X122598571Y-107946428D01*
X122527143Y-107803571D01*
X122455714Y-107732142D01*
X122312857Y-107660714D01*
X122170000Y-107660714D01*
X122027143Y-107732142D01*
X121955714Y-107803571D01*
X121884286Y-107946428D01*
X121812857Y-108232142D01*
X121741429Y-108375000D01*
X121670000Y-108446428D01*
X121527143Y-108517857D01*
X121384286Y-108517857D01*
X121241429Y-108446428D01*
X121170000Y-108375000D01*
X121098571Y-108232142D01*
X121098571Y-107875000D01*
X121170000Y-107660714D01*
X121098571Y-107232143D02*
X121098571Y-106375000D01*
X122598571Y-106803571D02*
X121098571Y-106803571D01*
X114407143Y-115593571D02*
X114407143Y-114450714D01*
X114978571Y-115022143D02*
X113835714Y-115022143D01*
X113478571Y-113022142D02*
X113478571Y-113736428D01*
X114192857Y-113807857D01*
X114121429Y-113736428D01*
X114050000Y-113593571D01*
X114050000Y-113236428D01*
X114121429Y-113093571D01*
X114192857Y-113022142D01*
X114335714Y-112950714D01*
X114692857Y-112950714D01*
X114835714Y-113022142D01*
X114907143Y-113093571D01*
X114978571Y-113236428D01*
X114978571Y-113593571D01*
X114907143Y-113736428D01*
X114835714Y-113807857D01*
X113478571Y-112522143D02*
X114978571Y-112022143D01*
X113478571Y-111522143D01*
X107200000Y-114831428D02*
X107128571Y-114974285D01*
X107128571Y-115188571D01*
X107200000Y-115402856D01*
X107342857Y-115545714D01*
X107485714Y-115617142D01*
X107771429Y-115688571D01*
X107985714Y-115688571D01*
X108271429Y-115617142D01*
X108414286Y-115545714D01*
X108557143Y-115402856D01*
X108628571Y-115188571D01*
X108628571Y-115045714D01*
X108557143Y-114831428D01*
X108485714Y-114759999D01*
X107985714Y-114759999D01*
X107985714Y-115045714D01*
X108628571Y-114117142D02*
X107128571Y-114117142D01*
X108628571Y-113259999D01*
X107128571Y-113259999D01*
X108628571Y-112545713D02*
X107128571Y-112545713D01*
X107128571Y-112188570D01*
X107200000Y-111974285D01*
X107342857Y-111831427D01*
X107485714Y-111759999D01*
X107771429Y-111688570D01*
X107985714Y-111688570D01*
X108271429Y-111759999D01*
X108414286Y-111831427D01*
X108557143Y-111974285D01*
X108628571Y-112188570D01*
X108628571Y-112545713D01*
X107128571Y-109188570D02*
X107128571Y-109902856D01*
X107842857Y-109974285D01*
X107771429Y-109902856D01*
X107700000Y-109759999D01*
X107700000Y-109402856D01*
X107771429Y-109259999D01*
X107842857Y-109188570D01*
X107985714Y-109117142D01*
X108342857Y-109117142D01*
X108485714Y-109188570D01*
X108557143Y-109259999D01*
X108628571Y-109402856D01*
X108628571Y-109759999D01*
X108557143Y-109902856D01*
X108485714Y-109974285D01*
X107128571Y-108688571D02*
X108628571Y-108188571D01*
X107128571Y-107688571D01*
X100937143Y-115450714D02*
X101008571Y-115236428D01*
X101008571Y-114879285D01*
X100937143Y-114736428D01*
X100865714Y-114664999D01*
X100722857Y-114593571D01*
X100580000Y-114593571D01*
X100437143Y-114664999D01*
X100365714Y-114736428D01*
X100294286Y-114879285D01*
X100222857Y-115164999D01*
X100151429Y-115307857D01*
X100080000Y-115379285D01*
X99937143Y-115450714D01*
X99794286Y-115450714D01*
X99651429Y-115379285D01*
X99580000Y-115307857D01*
X99508571Y-115164999D01*
X99508571Y-114807857D01*
X99580000Y-114593571D01*
X100865714Y-113093571D02*
X100937143Y-113165000D01*
X101008571Y-113379286D01*
X101008571Y-113522143D01*
X100937143Y-113736428D01*
X100794286Y-113879286D01*
X100651429Y-113950714D01*
X100365714Y-114022143D01*
X100151429Y-114022143D01*
X99865714Y-113950714D01*
X99722857Y-113879286D01*
X99580000Y-113736428D01*
X99508571Y-113522143D01*
X99508571Y-113379286D01*
X99580000Y-113165000D01*
X99651429Y-113093571D01*
X101008571Y-111736428D02*
X101008571Y-112450714D01*
X99508571Y-112450714D01*
X94587143Y-115486428D02*
X94658571Y-115272142D01*
X94658571Y-114914999D01*
X94587143Y-114772142D01*
X94515714Y-114700713D01*
X94372857Y-114629285D01*
X94230000Y-114629285D01*
X94087143Y-114700713D01*
X94015714Y-114772142D01*
X93944286Y-114914999D01*
X93872857Y-115200713D01*
X93801429Y-115343571D01*
X93730000Y-115414999D01*
X93587143Y-115486428D01*
X93444286Y-115486428D01*
X93301429Y-115414999D01*
X93230000Y-115343571D01*
X93158571Y-115200713D01*
X93158571Y-114843571D01*
X93230000Y-114629285D01*
X94658571Y-113986428D02*
X93158571Y-113986428D01*
X93158571Y-113629285D01*
X93230000Y-113415000D01*
X93372857Y-113272142D01*
X93515714Y-113200714D01*
X93801429Y-113129285D01*
X94015714Y-113129285D01*
X94301429Y-113200714D01*
X94444286Y-113272142D01*
X94587143Y-113415000D01*
X94658571Y-113629285D01*
X94658571Y-113986428D01*
X94230000Y-112557857D02*
X94230000Y-111843571D01*
X94658571Y-112700714D02*
X93158571Y-112200714D01*
X94658571Y-111700714D01*
X87038571Y-115415000D02*
X85538571Y-115415000D01*
X85538571Y-115057857D01*
X85610000Y-114843572D01*
X85752857Y-114700714D01*
X85895714Y-114629286D01*
X86181429Y-114557857D01*
X86395714Y-114557857D01*
X86681429Y-114629286D01*
X86824286Y-114700714D01*
X86967143Y-114843572D01*
X87038571Y-115057857D01*
X87038571Y-115415000D01*
X87038571Y-113915000D02*
X85538571Y-113915000D01*
X86252857Y-113915000D02*
X86252857Y-113057857D01*
X87038571Y-113057857D02*
X85538571Y-113057857D01*
X85538571Y-112557857D02*
X85538571Y-111700714D01*
X87038571Y-112129285D02*
X85538571Y-112129285D01*
D12*
X153460000Y-97480000D02*
X153460000Y-100600000D01*
X151340000Y-97480000D02*
X151340000Y-100600000D01*
X153460000Y-97480000D02*
X153396000Y-97480000D01*
X151404000Y-97480000D02*
X151340000Y-97480000D01*
X153460000Y-100600000D02*
X153396000Y-100600000D01*
X151404000Y-100600000D02*
X151340000Y-100600000D01*
X151340000Y-63810000D02*
X151340000Y-60690000D01*
X153460000Y-63810000D02*
X153460000Y-60690000D01*
X151340000Y-63810000D02*
X151404000Y-63810000D01*
X153396000Y-63810000D02*
X153460000Y-63810000D01*
X151340000Y-60690000D02*
X151404000Y-60690000D01*
X153396000Y-60690000D02*
X153460000Y-60690000D01*
X150430000Y-113355000D02*
X150430000Y-113025000D01*
X150430000Y-113025000D02*
X159450000Y-113025000D01*
X159450000Y-113025000D02*
X159450000Y-113355000D01*
X150430000Y-116515000D02*
X150430000Y-116845000D01*
X150430000Y-116845000D02*
X159450000Y-116845000D01*
X159450000Y-116845000D02*
X159450000Y-116515000D01*
X151825000Y-113025000D02*
X151825000Y-116845000D01*
D13*
X90130000Y-127290000D02*
X90130000Y-127790000D01*
X94630000Y-123290000D02*
G75*
G03X94630000Y-123290000I-2000000J0D01*
G01*
X89630000Y-123290000D02*
G75*
G03X89630000Y-123290000I-2000000J0D01*
G01*
X85130000Y-125790000D02*
X95130000Y-125790000D01*
X85130000Y-120890000D02*
X95130000Y-120890000D01*
X85130000Y-127290000D02*
X95130000Y-127290000D01*
X85130000Y-127790000D02*
X95130000Y-127790000D01*
X95130000Y-127790000D02*
X95130000Y-117990000D01*
X95130000Y-117990000D02*
X85130000Y-117990000D01*
X85130000Y-117990000D02*
X85130000Y-127790000D01*
X104100000Y-127290000D02*
X104100000Y-127790000D01*
X108600000Y-123290000D02*
G75*
G03X108600000Y-123290000I-2000000J0D01*
G01*
X103600000Y-123290000D02*
G75*
G03X103600000Y-123290000I-2000000J0D01*
G01*
X99100000Y-125790000D02*
X109100000Y-125790000D01*
X99100000Y-120890000D02*
X109100000Y-120890000D01*
X99100000Y-127290000D02*
X109100000Y-127290000D01*
X99100000Y-127790000D02*
X109100000Y-127790000D01*
X109100000Y-127790000D02*
X109100000Y-117990000D01*
X109100000Y-117990000D02*
X99100000Y-117990000D01*
X99100000Y-117990000D02*
X99100000Y-127790000D01*
X118070000Y-127290000D02*
X118070000Y-127790000D01*
X122570000Y-123290000D02*
G75*
G03X122570000Y-123290000I-2000000J0D01*
G01*
X117570000Y-123290000D02*
G75*
G03X117570000Y-123290000I-2000000J0D01*
G01*
X113070000Y-125790000D02*
X123070000Y-125790000D01*
X113070000Y-120890000D02*
X123070000Y-120890000D01*
X113070000Y-127290000D02*
X123070000Y-127290000D01*
X113070000Y-127790000D02*
X123070000Y-127790000D01*
X123070000Y-127790000D02*
X123070000Y-117990000D01*
X123070000Y-117990000D02*
X113070000Y-117990000D01*
X113070000Y-117990000D02*
X113070000Y-127790000D01*
X132040000Y-127290000D02*
X132040000Y-127790000D01*
X136540000Y-123290000D02*
G75*
G03X136540000Y-123290000I-2000000J0D01*
G01*
X131540000Y-123290000D02*
G75*
G03X131540000Y-123290000I-2000000J0D01*
G01*
X127040000Y-125790000D02*
X137040000Y-125790000D01*
X127040000Y-120890000D02*
X137040000Y-120890000D01*
X127040000Y-127290000D02*
X137040000Y-127290000D01*
X127040000Y-127790000D02*
X137040000Y-127790000D01*
X137040000Y-127790000D02*
X137040000Y-117990000D01*
X137040000Y-117990000D02*
X127040000Y-117990000D01*
X127040000Y-117990000D02*
X127040000Y-127790000D01*
X146010000Y-127290000D02*
X146010000Y-127790000D01*
X150510000Y-123290000D02*
G75*
G03X150510000Y-123290000I-2000000J0D01*
G01*
X145510000Y-123290000D02*
G75*
G03X145510000Y-123290000I-2000000J0D01*
G01*
X141010000Y-125790000D02*
X151010000Y-125790000D01*
X141010000Y-120890000D02*
X151010000Y-120890000D01*
X141010000Y-127290000D02*
X151010000Y-127290000D01*
X141010000Y-127790000D02*
X151010000Y-127790000D01*
X151010000Y-127790000D02*
X151010000Y-117990000D01*
X151010000Y-117990000D02*
X141010000Y-117990000D01*
X141010000Y-117990000D02*
X141010000Y-127790000D01*
X159980000Y-127290000D02*
X159980000Y-127790000D01*
X164480000Y-123290000D02*
G75*
G03X164480000Y-123290000I-2000000J0D01*
G01*
X159480000Y-123290000D02*
G75*
G03X159480000Y-123290000I-2000000J0D01*
G01*
X154980000Y-125790000D02*
X164980000Y-125790000D01*
X154980000Y-120890000D02*
X164980000Y-120890000D01*
X154980000Y-127290000D02*
X164980000Y-127290000D01*
X154980000Y-127790000D02*
X164980000Y-127790000D01*
X164980000Y-127790000D02*
X164980000Y-117990000D01*
X164980000Y-117990000D02*
X154980000Y-117990000D01*
X154980000Y-117990000D02*
X154980000Y-127790000D01*
D12*
X138960000Y-85145000D02*
X135360000Y-85145000D01*
X138998478Y-85156522D02*
G75*
G02X137160000Y-89595000I-1838478J-1838478D01*
G01*
X135321522Y-85156522D02*
G75*
G03X137160000Y-89595000I1838478J-1838478D01*
G01*
X138960000Y-68000000D02*
X135360000Y-68000000D01*
X138998478Y-68011522D02*
G75*
G02X137160000Y-72450000I-1838478J-1838478D01*
G01*
X135321522Y-68011522D02*
G75*
G03X137160000Y-72450000I1838478J-1838478D01*
G01*
X157400000Y-100370000D02*
X157400000Y-90130000D01*
X162041000Y-100370000D02*
X162041000Y-90130000D01*
X157400000Y-100370000D02*
X162041000Y-100370000D01*
X157400000Y-90130000D02*
X162041000Y-90130000D01*
X158910000Y-100370000D02*
X158910000Y-90130000D01*
X157400000Y-97100000D02*
X158910000Y-97100000D01*
X157400000Y-93399000D02*
X158910000Y-93399000D01*
X157400000Y-68620000D02*
X157400000Y-58380000D01*
X162041000Y-68620000D02*
X162041000Y-58380000D01*
X157400000Y-68620000D02*
X162041000Y-68620000D01*
X157400000Y-58380000D02*
X162041000Y-58380000D01*
X158910000Y-68620000D02*
X158910000Y-58380000D01*
X157400000Y-65350000D02*
X158910000Y-65350000D01*
X157400000Y-61649000D02*
X158910000Y-61649000D01*
X135290000Y-82590000D02*
X135290000Y-79970000D01*
X135290000Y-79970000D02*
X128870000Y-79970000D01*
X128870000Y-79970000D02*
X128870000Y-82590000D01*
X128870000Y-82590000D02*
X135290000Y-82590000D01*
X136180000Y-81280000D02*
X135290000Y-81280000D01*
X127980000Y-81280000D02*
X128870000Y-81280000D01*
X135290000Y-77510000D02*
X135290000Y-74890000D01*
X135290000Y-74890000D02*
X128870000Y-74890000D01*
X128870000Y-74890000D02*
X128870000Y-77510000D01*
X128870000Y-77510000D02*
X135290000Y-77510000D01*
X136180000Y-76200000D02*
X135290000Y-76200000D01*
X127980000Y-76200000D02*
X128870000Y-76200000D01*
X144180000Y-95290000D02*
X144180000Y-92670000D01*
X144180000Y-92670000D02*
X137760000Y-92670000D01*
X137760000Y-92670000D02*
X137760000Y-95290000D01*
X137760000Y-95290000D02*
X144180000Y-95290000D01*
X145070000Y-93980000D02*
X144180000Y-93980000D01*
X136870000Y-93980000D02*
X137760000Y-93980000D01*
X150530000Y-71160000D02*
X150530000Y-68540000D01*
X150530000Y-68540000D02*
X144110000Y-68540000D01*
X144110000Y-68540000D02*
X144110000Y-71160000D01*
X144110000Y-71160000D02*
X150530000Y-71160000D01*
X151420000Y-69850000D02*
X150530000Y-69850000D01*
X143220000Y-69850000D02*
X144110000Y-69850000D01*
X146720000Y-99100000D02*
X146720000Y-96480000D01*
X146720000Y-96480000D02*
X140300000Y-96480000D01*
X140300000Y-96480000D02*
X140300000Y-99100000D01*
X140300000Y-99100000D02*
X146720000Y-99100000D01*
X147610000Y-97790000D02*
X146720000Y-97790000D01*
X139410000Y-97790000D02*
X140300000Y-97790000D01*
X145450000Y-64810000D02*
X145450000Y-62190000D01*
X145450000Y-62190000D02*
X139030000Y-62190000D01*
X139030000Y-62190000D02*
X139030000Y-64810000D01*
X139030000Y-64810000D02*
X145450000Y-64810000D01*
X146340000Y-63500000D02*
X145450000Y-63500000D01*
X138140000Y-63500000D02*
X139030000Y-63500000D01*
D13*
X96795001Y-61235001D02*
X96795001Y-95525001D01*
X124735001Y-61235001D02*
X124735001Y-95525001D01*
X123465001Y-96795001D02*
X98065001Y-96795001D01*
X124735001Y-95525001D02*
X123465001Y-96795001D01*
X96795001Y-95525001D02*
X98065001Y-96795001D01*
X96795001Y-61235001D02*
X124735001Y-61235001D01*
X155067143Y-99206666D02*
X155114762Y-99254285D01*
X155162381Y-99397142D01*
X155162381Y-99492380D01*
X155114762Y-99635238D01*
X155019524Y-99730476D01*
X154924286Y-99778095D01*
X154733810Y-99825714D01*
X154590952Y-99825714D01*
X154400476Y-99778095D01*
X154305238Y-99730476D01*
X154210000Y-99635238D01*
X154162381Y-99492380D01*
X154162381Y-99397142D01*
X154210000Y-99254285D01*
X154257619Y-99206666D01*
X154257619Y-98825714D02*
X154210000Y-98778095D01*
X154162381Y-98682857D01*
X154162381Y-98444761D01*
X154210000Y-98349523D01*
X154257619Y-98301904D01*
X154352857Y-98254285D01*
X154448095Y-98254285D01*
X154590952Y-98301904D01*
X155162381Y-98873333D01*
X155162381Y-98254285D01*
X150447143Y-62416666D02*
X150494762Y-62464285D01*
X150542381Y-62607142D01*
X150542381Y-62702380D01*
X150494762Y-62845238D01*
X150399524Y-62940476D01*
X150304286Y-62988095D01*
X150113810Y-63035714D01*
X149970952Y-63035714D01*
X149780476Y-62988095D01*
X149685238Y-62940476D01*
X149590000Y-62845238D01*
X149542381Y-62702380D01*
X149542381Y-62607142D01*
X149590000Y-62464285D01*
X149637619Y-62416666D01*
X149542381Y-62083333D02*
X149542381Y-61464285D01*
X149923333Y-61797619D01*
X149923333Y-61654761D01*
X149970952Y-61559523D01*
X150018571Y-61511904D01*
X150113810Y-61464285D01*
X150351905Y-61464285D01*
X150447143Y-61511904D01*
X150494762Y-61559523D01*
X150542381Y-61654761D01*
X150542381Y-61940476D01*
X150494762Y-62035714D01*
X150447143Y-62083333D01*
X154201905Y-112477381D02*
X154201905Y-111477381D01*
X154440000Y-111477381D01*
X154582858Y-111525000D01*
X154678096Y-111620238D01*
X154725715Y-111715476D01*
X154773334Y-111905952D01*
X154773334Y-112048810D01*
X154725715Y-112239286D01*
X154678096Y-112334524D01*
X154582858Y-112429762D01*
X154440000Y-112477381D01*
X154201905Y-112477381D01*
X155725715Y-112477381D02*
X155154286Y-112477381D01*
X155440000Y-112477381D02*
X155440000Y-111477381D01*
X155344762Y-111620238D01*
X155249524Y-111715476D01*
X155154286Y-111763095D01*
X89796667Y-128542381D02*
X89796667Y-129256667D01*
X89749047Y-129399524D01*
X89653809Y-129494762D01*
X89510952Y-129542381D01*
X89415714Y-129542381D01*
X90796667Y-129542381D02*
X90225238Y-129542381D01*
X90510952Y-129542381D02*
X90510952Y-128542381D01*
X90415714Y-128685238D01*
X90320476Y-128780476D01*
X90225238Y-128828095D01*
X103766667Y-128542381D02*
X103766667Y-129256667D01*
X103719047Y-129399524D01*
X103623809Y-129494762D01*
X103480952Y-129542381D01*
X103385714Y-129542381D01*
X104195238Y-128637619D02*
X104242857Y-128590000D01*
X104338095Y-128542381D01*
X104576191Y-128542381D01*
X104671429Y-128590000D01*
X104719048Y-128637619D01*
X104766667Y-128732857D01*
X104766667Y-128828095D01*
X104719048Y-128970952D01*
X104147619Y-129542381D01*
X104766667Y-129542381D01*
X117736667Y-128542381D02*
X117736667Y-129256667D01*
X117689047Y-129399524D01*
X117593809Y-129494762D01*
X117450952Y-129542381D01*
X117355714Y-129542381D01*
X118117619Y-128542381D02*
X118736667Y-128542381D01*
X118403333Y-128923333D01*
X118546191Y-128923333D01*
X118641429Y-128970952D01*
X118689048Y-129018571D01*
X118736667Y-129113810D01*
X118736667Y-129351905D01*
X118689048Y-129447143D01*
X118641429Y-129494762D01*
X118546191Y-129542381D01*
X118260476Y-129542381D01*
X118165238Y-129494762D01*
X118117619Y-129447143D01*
X131706667Y-128542381D02*
X131706667Y-129256667D01*
X131659047Y-129399524D01*
X131563809Y-129494762D01*
X131420952Y-129542381D01*
X131325714Y-129542381D01*
X132611429Y-128875714D02*
X132611429Y-129542381D01*
X132373333Y-128494762D02*
X132135238Y-129209048D01*
X132754286Y-129209048D01*
X145676667Y-128542381D02*
X145676667Y-129256667D01*
X145629047Y-129399524D01*
X145533809Y-129494762D01*
X145390952Y-129542381D01*
X145295714Y-129542381D01*
X146629048Y-128542381D02*
X146152857Y-128542381D01*
X146105238Y-129018571D01*
X146152857Y-128970952D01*
X146248095Y-128923333D01*
X146486191Y-128923333D01*
X146581429Y-128970952D01*
X146629048Y-129018571D01*
X146676667Y-129113810D01*
X146676667Y-129351905D01*
X146629048Y-129447143D01*
X146581429Y-129494762D01*
X146486191Y-129542381D01*
X146248095Y-129542381D01*
X146152857Y-129494762D01*
X146105238Y-129447143D01*
X159646667Y-128542381D02*
X159646667Y-129256667D01*
X159599047Y-129399524D01*
X159503809Y-129494762D01*
X159360952Y-129542381D01*
X159265714Y-129542381D01*
X160551429Y-128542381D02*
X160360952Y-128542381D01*
X160265714Y-128590000D01*
X160218095Y-128637619D01*
X160122857Y-128780476D01*
X160075238Y-128970952D01*
X160075238Y-129351905D01*
X160122857Y-129447143D01*
X160170476Y-129494762D01*
X160265714Y-129542381D01*
X160456191Y-129542381D01*
X160551429Y-129494762D01*
X160599048Y-129447143D01*
X160646667Y-129351905D01*
X160646667Y-129113810D01*
X160599048Y-129018571D01*
X160551429Y-128970952D01*
X160456191Y-128923333D01*
X160265714Y-128923333D01*
X160170476Y-128970952D01*
X160122857Y-129018571D01*
X160075238Y-129113810D01*
X137064762Y-91102619D02*
X136969524Y-91055000D01*
X136874286Y-90959762D01*
X136731429Y-90816905D01*
X136636190Y-90769286D01*
X136540952Y-90769286D01*
X136588571Y-91007381D02*
X136493333Y-90959762D01*
X136398095Y-90864524D01*
X136350476Y-90674048D01*
X136350476Y-90340714D01*
X136398095Y-90150238D01*
X136493333Y-90055000D01*
X136588571Y-90007381D01*
X136779048Y-90007381D01*
X136874286Y-90055000D01*
X136969524Y-90150238D01*
X137017143Y-90340714D01*
X137017143Y-90674048D01*
X136969524Y-90864524D01*
X136874286Y-90959762D01*
X136779048Y-91007381D01*
X136588571Y-91007381D01*
X137969524Y-91007381D02*
X137398095Y-91007381D01*
X137683809Y-91007381D02*
X137683809Y-90007381D01*
X137588571Y-90150238D01*
X137493333Y-90245476D01*
X137398095Y-90293095D01*
X137064762Y-73957619D02*
X136969524Y-73910000D01*
X136874286Y-73814762D01*
X136731429Y-73671905D01*
X136636190Y-73624286D01*
X136540952Y-73624286D01*
X136588571Y-73862381D02*
X136493333Y-73814762D01*
X136398095Y-73719524D01*
X136350476Y-73529048D01*
X136350476Y-73195714D01*
X136398095Y-73005238D01*
X136493333Y-72910000D01*
X136588571Y-72862381D01*
X136779048Y-72862381D01*
X136874286Y-72910000D01*
X136969524Y-73005238D01*
X137017143Y-73195714D01*
X137017143Y-73529048D01*
X136969524Y-73719524D01*
X136874286Y-73814762D01*
X136779048Y-73862381D01*
X136588571Y-73862381D01*
X137398095Y-72957619D02*
X137445714Y-72910000D01*
X137540952Y-72862381D01*
X137779048Y-72862381D01*
X137874286Y-72910000D01*
X137921905Y-72957619D01*
X137969524Y-73052857D01*
X137969524Y-73148095D01*
X137921905Y-73290952D01*
X137350476Y-73862381D01*
X137969524Y-73862381D01*
X156947619Y-95345238D02*
X156900000Y-95440476D01*
X156804762Y-95535714D01*
X156661905Y-95678571D01*
X156614286Y-95773810D01*
X156614286Y-95869048D01*
X156852381Y-95821429D02*
X156804762Y-95916667D01*
X156709524Y-96011905D01*
X156519048Y-96059524D01*
X156185714Y-96059524D01*
X155995238Y-96011905D01*
X155900000Y-95916667D01*
X155852381Y-95821429D01*
X155852381Y-95630952D01*
X155900000Y-95535714D01*
X155995238Y-95440476D01*
X156185714Y-95392857D01*
X156519048Y-95392857D01*
X156709524Y-95440476D01*
X156804762Y-95535714D01*
X156852381Y-95630952D01*
X156852381Y-95821429D01*
X155852381Y-95059524D02*
X155852381Y-94440476D01*
X156233333Y-94773810D01*
X156233333Y-94630952D01*
X156280952Y-94535714D01*
X156328571Y-94488095D01*
X156423810Y-94440476D01*
X156661905Y-94440476D01*
X156757143Y-94488095D01*
X156804762Y-94535714D01*
X156852381Y-94630952D01*
X156852381Y-94916667D01*
X156804762Y-95011905D01*
X156757143Y-95059524D01*
X156947619Y-63595238D02*
X156900000Y-63690476D01*
X156804762Y-63785714D01*
X156661905Y-63928571D01*
X156614286Y-64023810D01*
X156614286Y-64119048D01*
X156852381Y-64071429D02*
X156804762Y-64166667D01*
X156709524Y-64261905D01*
X156519048Y-64309524D01*
X156185714Y-64309524D01*
X155995238Y-64261905D01*
X155900000Y-64166667D01*
X155852381Y-64071429D01*
X155852381Y-63880952D01*
X155900000Y-63785714D01*
X155995238Y-63690476D01*
X156185714Y-63642857D01*
X156519048Y-63642857D01*
X156709524Y-63690476D01*
X156804762Y-63785714D01*
X156852381Y-63880952D01*
X156852381Y-64071429D01*
X156185714Y-62785714D02*
X156852381Y-62785714D01*
X155804762Y-63023810D02*
X156519048Y-63261905D01*
X156519048Y-62642857D01*
X131913334Y-84042381D02*
X131580000Y-83566190D01*
X131341905Y-84042381D02*
X131341905Y-83042381D01*
X131722858Y-83042381D01*
X131818096Y-83090000D01*
X131865715Y-83137619D01*
X131913334Y-83232857D01*
X131913334Y-83375714D01*
X131865715Y-83470952D01*
X131818096Y-83518571D01*
X131722858Y-83566190D01*
X131341905Y-83566190D01*
X132865715Y-84042381D02*
X132294286Y-84042381D01*
X132580000Y-84042381D02*
X132580000Y-83042381D01*
X132484762Y-83185238D01*
X132389524Y-83280476D01*
X132294286Y-83328095D01*
X131913334Y-78962381D02*
X131580000Y-78486190D01*
X131341905Y-78962381D02*
X131341905Y-77962381D01*
X131722858Y-77962381D01*
X131818096Y-78010000D01*
X131865715Y-78057619D01*
X131913334Y-78152857D01*
X131913334Y-78295714D01*
X131865715Y-78390952D01*
X131818096Y-78438571D01*
X131722858Y-78486190D01*
X131341905Y-78486190D01*
X132294286Y-78057619D02*
X132341905Y-78010000D01*
X132437143Y-77962381D01*
X132675239Y-77962381D01*
X132770477Y-78010000D01*
X132818096Y-78057619D01*
X132865715Y-78152857D01*
X132865715Y-78248095D01*
X132818096Y-78390952D01*
X132246667Y-78962381D01*
X132865715Y-78962381D01*
X140803334Y-96742381D02*
X140470000Y-96266190D01*
X140231905Y-96742381D02*
X140231905Y-95742381D01*
X140612858Y-95742381D01*
X140708096Y-95790000D01*
X140755715Y-95837619D01*
X140803334Y-95932857D01*
X140803334Y-96075714D01*
X140755715Y-96170952D01*
X140708096Y-96218571D01*
X140612858Y-96266190D01*
X140231905Y-96266190D01*
X141136667Y-95742381D02*
X141755715Y-95742381D01*
X141422381Y-96123333D01*
X141565239Y-96123333D01*
X141660477Y-96170952D01*
X141708096Y-96218571D01*
X141755715Y-96313810D01*
X141755715Y-96551905D01*
X141708096Y-96647143D01*
X141660477Y-96694762D01*
X141565239Y-96742381D01*
X141279524Y-96742381D01*
X141184286Y-96694762D01*
X141136667Y-96647143D01*
X147153334Y-72612381D02*
X146820000Y-72136190D01*
X146581905Y-72612381D02*
X146581905Y-71612381D01*
X146962858Y-71612381D01*
X147058096Y-71660000D01*
X147105715Y-71707619D01*
X147153334Y-71802857D01*
X147153334Y-71945714D01*
X147105715Y-72040952D01*
X147058096Y-72088571D01*
X146962858Y-72136190D01*
X146581905Y-72136190D01*
X148010477Y-71945714D02*
X148010477Y-72612381D01*
X147772381Y-71564762D02*
X147534286Y-72279048D01*
X148153334Y-72279048D01*
X143343334Y-100552381D02*
X143010000Y-100076190D01*
X142771905Y-100552381D02*
X142771905Y-99552381D01*
X143152858Y-99552381D01*
X143248096Y-99600000D01*
X143295715Y-99647619D01*
X143343334Y-99742857D01*
X143343334Y-99885714D01*
X143295715Y-99980952D01*
X143248096Y-100028571D01*
X143152858Y-100076190D01*
X142771905Y-100076190D01*
X144248096Y-99552381D02*
X143771905Y-99552381D01*
X143724286Y-100028571D01*
X143771905Y-99980952D01*
X143867143Y-99933333D01*
X144105239Y-99933333D01*
X144200477Y-99980952D01*
X144248096Y-100028571D01*
X144295715Y-100123810D01*
X144295715Y-100361905D01*
X144248096Y-100457143D01*
X144200477Y-100504762D01*
X144105239Y-100552381D01*
X143867143Y-100552381D01*
X143771905Y-100504762D01*
X143724286Y-100457143D01*
X142073334Y-66262381D02*
X141740000Y-65786190D01*
X141501905Y-66262381D02*
X141501905Y-65262381D01*
X141882858Y-65262381D01*
X141978096Y-65310000D01*
X142025715Y-65357619D01*
X142073334Y-65452857D01*
X142073334Y-65595714D01*
X142025715Y-65690952D01*
X141978096Y-65738571D01*
X141882858Y-65786190D01*
X141501905Y-65786190D01*
X142930477Y-65262381D02*
X142740000Y-65262381D01*
X142644762Y-65310000D01*
X142597143Y-65357619D01*
X142501905Y-65500476D01*
X142454286Y-65690952D01*
X142454286Y-66071905D01*
X142501905Y-66167143D01*
X142549524Y-66214762D01*
X142644762Y-66262381D01*
X142835239Y-66262381D01*
X142930477Y-66214762D01*
X142978096Y-66167143D01*
X143025715Y-66071905D01*
X143025715Y-65833810D01*
X142978096Y-65738571D01*
X142930477Y-65690952D01*
X142835239Y-65643333D01*
X142644762Y-65643333D01*
X142549524Y-65690952D01*
X142501905Y-65738571D01*
X142454286Y-65833810D01*
X110003096Y-93707382D02*
X110003096Y-94516906D01*
X110050715Y-94612144D01*
X110098334Y-94659763D01*
X110193572Y-94707382D01*
X110384049Y-94707382D01*
X110479287Y-94659763D01*
X110526906Y-94612144D01*
X110574525Y-94516906D01*
X110574525Y-93707382D01*
X111574525Y-94707382D02*
X111003096Y-94707382D01*
X111288810Y-94707382D02*
X111288810Y-93707382D01*
X111193572Y-93850239D01*
X111098334Y-93945477D01*
X111003096Y-93993096D01*
X109503096Y-61957382D02*
X109503096Y-62766906D01*
X109550715Y-62862144D01*
X109598334Y-62909763D01*
X109693572Y-62957382D01*
X109884049Y-62957382D01*
X109979287Y-62909763D01*
X110026906Y-62862144D01*
X110074525Y-62766906D01*
X110074525Y-61957382D01*
X110503096Y-62909763D02*
X110645953Y-62957382D01*
X110884049Y-62957382D01*
X110979287Y-62909763D01*
X111026906Y-62862144D01*
X111074525Y-62766906D01*
X111074525Y-62671668D01*
X111026906Y-62576430D01*
X110979287Y-62528811D01*
X110884049Y-62481191D01*
X110693572Y-62433572D01*
X110598334Y-62385953D01*
X110550715Y-62338334D01*
X110503096Y-62243096D01*
X110503096Y-62147858D01*
X110550715Y-62052620D01*
X110598334Y-62005001D01*
X110693572Y-61957382D01*
X110931668Y-61957382D01*
X111074525Y-62005001D01*
X111836430Y-62433572D02*
X111979287Y-62481191D01*
X112026906Y-62528811D01*
X112074525Y-62624049D01*
X112074525Y-62766906D01*
X112026906Y-62862144D01*
X111979287Y-62909763D01*
X111884049Y-62957382D01*
X111503096Y-62957382D01*
X111503096Y-61957382D01*
X111836430Y-61957382D01*
X111931668Y-62005001D01*
X111979287Y-62052620D01*
X112026906Y-62147858D01*
X112026906Y-62243096D01*
X111979287Y-62338334D01*
X111931668Y-62385953D01*
X111836430Y-62433572D01*
X111503096Y-62433572D01*
X120956906Y-65767382D02*
X121575954Y-65767382D01*
X121242620Y-66148334D01*
X121385478Y-66148334D01*
X121480716Y-66195953D01*
X121528335Y-66243572D01*
X121575954Y-66338811D01*
X121575954Y-66576906D01*
X121528335Y-66672144D01*
X121480716Y-66719763D01*
X121385478Y-66767382D01*
X121099763Y-66767382D01*
X121004525Y-66719763D01*
X120956906Y-66672144D01*
X121861668Y-65767382D02*
X122195001Y-66767382D01*
X122528335Y-65767382D01*
X122766430Y-65767382D02*
X123385478Y-65767382D01*
X123052144Y-66148334D01*
X123195002Y-66148334D01*
X123290240Y-66195953D01*
X123337859Y-66243572D01*
X123385478Y-66338811D01*
X123385478Y-66576906D01*
X123337859Y-66672144D01*
X123290240Y-66719763D01*
X123195002Y-66767382D01*
X122909287Y-66767382D01*
X122814049Y-66719763D01*
X122766430Y-66672144D01*
X99144525Y-65767382D02*
X98668334Y-65767382D01*
X98620715Y-66243572D01*
X98668334Y-66195953D01*
X98763572Y-66148334D01*
X99001668Y-66148334D01*
X99096906Y-66195953D01*
X99144525Y-66243572D01*
X99192144Y-66338811D01*
X99192144Y-66576906D01*
X99144525Y-66672144D01*
X99096906Y-66719763D01*
X99001668Y-66767382D01*
X98763572Y-66767382D01*
X98668334Y-66719763D01*
X98620715Y-66672144D01*
X99477858Y-65767382D02*
X99811191Y-66767382D01*
X100144525Y-65767382D01*
M02*
