G04 #@! TF.FileFunction,Copper,L1,Top,Signal*
%FSLAX46Y46*%
G04 Gerber Fmt 4.6, Leading zero omitted, Abs format (unit mm)*
G04 Created by KiCad (PCBNEW 4.0.6) date 08/24/17 20:09:39*
%MOMM*%
%LPD*%
G01*
G04 APERTURE LIST*
%ADD10C,0.100000*%
%ADD11C,1.600000*%
%ADD12R,2.800000X2.800000*%
%ADD13O,2.800000X2.800000*%
%ADD14R,2.500000X2.500000*%
%ADD15C,2.500000*%
%ADD16C,1.000000*%
%ADD17R,1.000000X1.000000*%
%ADD18R,1.800000X1.800000*%
%ADD19O,1.800000X1.800000*%
%ADD20O,1.600000X1.600000*%
%ADD21C,1.524000*%
%ADD22C,0.250000*%
%ADD23C,2.300000*%
%ADD24C,2.500000*%
%ADD25C,1.500000*%
G04 APERTURE END LIST*
D10*
D11*
X152400000Y-97790000D03*
X152400000Y-100290000D03*
X152400000Y-63500000D03*
X152400000Y-61000000D03*
D12*
X149860000Y-114935000D03*
D13*
X160020000Y-114935000D03*
D14*
X87630000Y-123190000D03*
D15*
X92630000Y-123190000D03*
D14*
X101600000Y-123190000D03*
D15*
X106600000Y-123190000D03*
D14*
X115570000Y-123190000D03*
D15*
X120570000Y-123190000D03*
D14*
X129540000Y-123190000D03*
D15*
X134540000Y-123190000D03*
D14*
X143510000Y-123190000D03*
D15*
X148510000Y-123190000D03*
D14*
X157480000Y-123190000D03*
D15*
X162480000Y-123190000D03*
D16*
X137160000Y-88265000D03*
X135890000Y-86995000D03*
D17*
X138430000Y-86995000D03*
D16*
X137160000Y-71120000D03*
X135890000Y-69850000D03*
D17*
X138430000Y-69850000D03*
D18*
X160020000Y-97790000D03*
D19*
X160020000Y-95250000D03*
X160020000Y-92710000D03*
D18*
X160020000Y-66040000D03*
D19*
X160020000Y-63500000D03*
X160020000Y-60960000D03*
D11*
X137160000Y-81280000D03*
D20*
X127000000Y-81280000D03*
D11*
X137160000Y-76200000D03*
D20*
X127000000Y-76200000D03*
D11*
X146050000Y-93980000D03*
D20*
X135890000Y-93980000D03*
D11*
X152400000Y-69850000D03*
D20*
X142240000Y-69850000D03*
D11*
X148590000Y-97790000D03*
D20*
X138430000Y-97790000D03*
D11*
X147320000Y-63500000D03*
D20*
X137160000Y-63500000D03*
D21*
X122195001Y-70125001D03*
X122195001Y-72665001D03*
X122195001Y-75205001D03*
X122195001Y-77745001D03*
X122195001Y-80285001D03*
X122195001Y-82825001D03*
X122195001Y-85365001D03*
X122195001Y-87905001D03*
X99335001Y-70125001D03*
X99335001Y-72665001D03*
X99335001Y-75205001D03*
X99335001Y-77745001D03*
X99335001Y-80285001D03*
X99335001Y-82825001D03*
X99335001Y-85365001D03*
X99335001Y-87905001D03*
X122195001Y-70125001D03*
D22*
X148590000Y-97790000D02*
X152400000Y-97790000D01*
D23*
X160020000Y-60960000D02*
X166370000Y-60960000D01*
X168910000Y-63500000D02*
X168910000Y-96520000D01*
X166370000Y-60960000D02*
X168910000Y-63500000D01*
D24*
X160020000Y-92710000D02*
X165100000Y-92710000D01*
X165100000Y-92710000D02*
X168910000Y-96520000D01*
X154225000Y-128905000D02*
X148510000Y-123190000D01*
X168910000Y-96520000D02*
X168910000Y-125095000D01*
X168910000Y-125095000D02*
X165100000Y-128905000D01*
X165100000Y-128905000D02*
X154225000Y-128905000D01*
D22*
X99335001Y-72665001D02*
X104775000Y-78105000D01*
X104775000Y-78105000D02*
X104775000Y-121365000D01*
X104775000Y-121365000D02*
X106600000Y-123190000D01*
X159980000Y-61000000D02*
X160020000Y-60960000D01*
X152400000Y-63500000D02*
X154940000Y-66040000D01*
X154940000Y-66040000D02*
X160020000Y-66040000D01*
X147320000Y-63500000D02*
X152400000Y-63500000D01*
X149860000Y-114935000D02*
X146685000Y-114935000D01*
X143510000Y-118110000D02*
X143510000Y-123190000D01*
X146685000Y-114935000D02*
X143510000Y-118110000D01*
D24*
X143510000Y-123190000D02*
X134540000Y-123190000D01*
D22*
X160020000Y-114935000D02*
X160020000Y-118745000D01*
X160020000Y-120650000D02*
X162480000Y-123110000D01*
X160020000Y-118745000D02*
X160020000Y-120650000D01*
X162480000Y-123110000D02*
X162480000Y-123190000D01*
D25*
X160020000Y-95250000D02*
X162560000Y-95250000D01*
X163830000Y-121840000D02*
X162480000Y-123190000D01*
X163830000Y-96520000D02*
X163830000Y-121840000D01*
X162560000Y-95250000D02*
X163830000Y-96520000D01*
D22*
X99335001Y-77745001D02*
X94974999Y-77745001D01*
X87630000Y-85090000D02*
X87630000Y-123190000D01*
X94974999Y-77745001D02*
X87630000Y-85090000D01*
X92630000Y-123190000D02*
X92630000Y-86990002D01*
X92630000Y-86990002D02*
X99335001Y-80285001D01*
X101600000Y-123190000D02*
X101600000Y-85090000D01*
X101600000Y-85090000D02*
X99335001Y-82825001D01*
X115570000Y-123190000D02*
X115570000Y-86360000D01*
X115570000Y-86360000D02*
X99335001Y-70125001D01*
X152400000Y-69850000D02*
X152400000Y-87630000D01*
X152400000Y-87630000D02*
X146050000Y-93980000D01*
X120570000Y-123190000D02*
X120570000Y-86990002D01*
X120570000Y-86990002D02*
X122195001Y-85365001D01*
X122195001Y-82825001D02*
X129540000Y-90170000D01*
X129540000Y-90170000D02*
X129540000Y-123190000D01*
D23*
X160020000Y-63500000D02*
X161925000Y-63500000D01*
X155575000Y-121285000D02*
X157480000Y-123190000D01*
X155575000Y-88265000D02*
X155575000Y-121285000D01*
X162560000Y-81280000D02*
X155575000Y-88265000D01*
X162560000Y-64135000D02*
X162560000Y-81280000D01*
X161925000Y-63500000D02*
X162560000Y-64135000D01*
D22*
X137160000Y-81280000D02*
X137160000Y-88265000D01*
X138430000Y-86995000D02*
X138430000Y-91440000D01*
X138430000Y-91440000D02*
X135890000Y-93980000D01*
X138430000Y-97790000D02*
X137160000Y-97790000D01*
X135890000Y-96520000D02*
X135890000Y-93980000D01*
X137160000Y-97790000D02*
X135890000Y-96520000D01*
X137160000Y-76200000D02*
X137160000Y-71120000D01*
X137160000Y-63500000D02*
X135890000Y-64770000D01*
X135890000Y-67310000D02*
X138430000Y-69850000D01*
X135890000Y-64770000D02*
X135890000Y-67310000D01*
X138430000Y-69850000D02*
X142240000Y-69850000D01*
X122195001Y-80285001D02*
X126005001Y-80285001D01*
X126005001Y-80285001D02*
X127000000Y-81280000D01*
X122195001Y-77745001D02*
X125454999Y-77745001D01*
X125454999Y-77745001D02*
X127000000Y-76200000D01*
M02*
