M48
;DRILL file {KiCad 4.0.6} date 08/24/17 20:09:41
;FORMAT={-:-/ absolute / inch / decimal}
FMAT,2
INCH,TZ
T1C0.024
T2C0.030
T3C0.031
T4C0.039
T5C0.051
T6C0.055
%
G90
G05
M72
T1
X5.35Y-2.75
X5.35Y-3.425
X5.4Y-2.8
X5.4Y-3.475
X5.45Y-2.75
X5.45Y-3.425
T2
X3.9108Y-2.7608
X3.9108Y-2.8608
X3.9108Y-2.9608
X3.9108Y-3.0608
X3.9108Y-3.1608
X3.9108Y-3.2608
X3.9108Y-3.3608
X3.9108Y-3.4608
X4.8108Y-2.7608
X4.8108Y-2.7608
X4.8108Y-2.8608
X4.8108Y-2.9608
X4.8108Y-3.0608
X4.8108Y-3.1608
X4.8108Y-3.2608
X4.8108Y-3.3608
X4.8108Y-3.4608
T3
X5.Y-3.
X5.Y-3.2
X5.35Y-3.7
X5.4Y-2.5
X5.4Y-3.
X5.4Y-3.2
X5.45Y-3.85
X5.6Y-2.75
X5.75Y-3.7
X5.8Y-2.5
X5.85Y-3.85
X6.Y-2.4016
X6.Y-2.5
X6.Y-2.75
X6.Y-3.85
X6.Y-3.9484
T4
X6.3Y-2.4
X6.3Y-2.5
X6.3Y-2.6
X6.3Y-3.65
X6.3Y-3.75
X6.3Y-3.85
T5
X3.45Y-4.85
X3.6469Y-4.85
X4.Y-4.85
X4.1969Y-4.85
X4.55Y-4.85
X4.7469Y-4.85
X5.1Y-4.85
X5.2969Y-4.85
X5.65Y-4.85
X5.8469Y-4.85
X6.2Y-4.85
X6.3969Y-4.85
T6
X5.9Y-4.525
X6.3Y-4.525
T0
M30
